<svg width="106" height="49" viewBox="0 0 106 49" fill="none" xmlns="http://www.w3.org/2000/svg"><path d="M89.0485 16.6819C89.3785 16.6619 89.5985 16.6519 89.8085 16.6219C91.6485 16.3919 93.4885 16.1619 95.3185 15.9019C95.5485 15.8719 95.8185 15.6719 95.9385 15.4719C96.6885 14.1919 97.4985 12.9319 98.0985 11.5819C98.5885 10.4819 99.3485 9.58187 99.8785 8.52187C100.348 7.58187 101.008 6.73187 101.588 5.85187C102.338 4.73187 103.108 3.63187 103.838 2.50187C104.108 2.09187 104.468 2.02187 104.708 2.38187C105.298 3.24187 106.098 4.04187 105.928 5.21187C105.868 5.64187 105.728 6.10187 105.508 6.47187C104.818 7.64187 104.058 8.77187 103.338 9.92187C102.648 11.0219 101.948 12.1219 101.288 13.2519C100.678 14.3119 100.138 15.4219 99.5385 16.4919C99.0185 17.4219 98.9085 18.5419 98.0685 19.3219C97.8585 19.5219 97.8185 19.9019 97.6885 20.1919C97.3985 20.8519 97.0885 21.4919 96.8085 22.1519C96.3085 23.3119 95.8385 24.4919 95.3285 25.6519C94.9985 26.4119 94.6485 27.1619 94.2285 27.8819C93.7785 28.6519 92.9685 28.6919 92.4185 27.9819C92.0985 27.5619 91.8185 27.1119 91.5985 26.6319C91.3685 26.1219 91.3485 25.6119 91.7185 25.0719C92.0285 24.6119 92.1385 24.0219 92.3585 23.5019C92.8185 22.4019 93.3085 21.3219 93.7785 20.2219C93.8485 20.0619 93.8485 19.8719 93.8885 19.6919C93.6885 19.6819 93.4785 19.6119 93.2885 19.6619C91.5885 20.0619 89.8985 20.4919 88.1985 20.9019C87.8885 20.9819 87.5585 21.0119 87.2485 21.0919C86.0185 21.4219 85.4385 22.4219 84.9385 23.4419C84.3685 24.6119 83.8785 25.8319 83.3785 27.0319C83.1985 27.4719 83.1685 27.9719 82.9485 28.3819C82.7785 28.7019 82.4885 29.0819 82.1685 29.1819C81.7385 29.3119 81.3285 29.0519 81.1185 28.5919C80.8185 27.9419 80.4185 27.3119 80.2585 26.6219C80.1485 26.1319 80.3485 25.5519 80.4585 25.0219C80.5485 24.5919 80.7285 24.1719 80.9085 23.6319C80.1585 23.9919 79.5685 24.3219 78.9585 24.5619C77.4285 25.1719 75.8985 25.7919 74.2285 25.9319C73.9985 25.9519 73.7885 26.1519 73.5585 26.2219C72.6985 26.4519 71.8385 26.6719 70.9685 26.8719C69.4585 27.2119 67.9385 27.5319 66.4185 27.8619C65.3585 28.0919 64.2985 28.2719 63.2485 28.5319C61.6785 28.9219 60.5685 28.2819 60.1485 26.7119C60.1085 26.5619 60.0785 26.4119 60.0285 26.2719C59.9185 25.9019 59.7285 25.8219 59.3485 25.9719C58.2385 26.4119 57.1185 26.8619 55.9785 27.1919C54.1385 27.7219 52.2385 28.0319 50.3685 27.4419C49.1285 27.0519 48.3185 26.0919 47.8685 24.8719C47.4885 23.8219 47.0185 22.7919 47.0885 21.6219C47.1085 21.2819 46.8685 21.0919 46.5185 21.1619C45.3485 21.4119 44.1885 21.6819 43.0285 21.9519C42.9385 21.9719 42.8085 22.0219 42.7885 22.0819C42.4885 22.8419 41.7385 22.7119 41.1485 22.9119C39.6985 23.4219 38.2485 23.9219 36.7885 24.4219C35.1085 25.0119 33.4485 25.6819 31.7285 26.1619C30.2585 26.5719 28.5585 25.5819 27.9485 24.1619C27.8785 23.9919 27.6985 23.8719 27.5685 23.7319C27.4385 23.8819 27.2885 24.0219 27.1985 24.1919C26.8385 24.8319 26.4985 25.4819 26.1485 26.1319C25.7985 26.7819 25.4585 27.4419 25.0985 28.0919C24.9485 28.3619 24.8085 28.6219 24.6185 28.8619C24.1585 29.4519 23.6485 29.5219 23.1185 29.0219C22.5985 28.5319 22.0385 28.0519 21.6585 27.4719C21.1385 26.6819 20.7385 25.8219 21.2585 24.8119C21.4385 24.4619 21.4185 24.0219 21.5085 23.5219C21.0785 23.7219 20.6985 23.9019 20.3185 24.0719C18.4085 24.9519 16.5285 25.9019 14.5885 26.7119C12.1285 27.7319 9.61849 28.6519 7.11849 29.5819C5.99849 30.0019 4.84849 30.3319 3.71849 30.7119C2.76849 31.0319 1.37849 30.5919 0.848487 29.7319C0.538487 29.2419 0.318487 28.6919 0.108487 28.1419C0.0184868 27.9119 -0.0315132 27.5619 0.0784868 27.3719C0.378487 26.8619 0.268487 26.3819 0.0884868 25.9019C-0.221513 25.0619 0.368487 24.4019 0.548487 23.6719C0.678487 23.1419 1.07849 22.6819 1.29849 22.1619C1.87849 20.8119 2.63849 19.5719 3.48849 18.3819C4.43849 17.0519 5.36849 15.7119 6.31849 14.3719C6.37849 14.2819 6.47849 14.1919 6.57849 14.1719C7.33849 13.9619 7.68849 13.4119 7.88849 12.6919C7.94849 12.4819 8.12849 12.1919 8.31849 12.1419C9.08849 11.9219 9.48849 11.2719 10.0285 10.8019C10.0885 10.7519 10.1585 10.6919 10.1685 10.6219C10.2385 9.66187 11.1085 9.29187 11.5985 8.65187C11.7785 8.41187 11.9785 8.18187 12.1385 7.92187C12.3885 7.53187 12.6585 7.21187 13.1785 7.14187C13.4785 7.10187 13.7685 6.90187 14.0285 6.71187C14.7585 6.20187 15.6685 5.92187 16.1785 5.10187C16.1985 5.07187 16.2285 5.04187 16.2585 5.02187C17.3685 4.54187 18.1285 3.47187 19.3985 3.22187C19.8785 3.12187 20.2785 2.65187 20.7285 2.38187C22.2585 1.47187 23.8585 0.751869 25.6485 0.571869C26.4985 0.491869 27.0885 1.04187 27.6585 1.50187C29.7285 3.17187 29.0385 5.06187 28.0285 6.60187C27.1285 7.95187 25.8185 8.87187 24.6385 9.93187C23.9685 10.5419 23.2385 11.0919 22.5685 11.7019C22.1085 12.1219 22.1485 12.2919 22.6985 12.5519C23.8385 13.0919 24.8385 13.8319 25.7185 14.7319C25.9285 14.9419 26.0285 15.2519 26.2185 15.4719C26.3685 15.6519 26.5785 15.8919 26.7685 15.8919C26.9385 15.8919 27.1485 15.6319 27.2685 15.4419C27.8785 14.4419 28.4385 13.4119 29.0485 12.4119C29.7085 11.3319 30.3685 10.2419 31.0885 9.20187C31.9285 7.99187 32.8085 6.81187 33.7185 5.64187C34.1785 5.05187 34.5585 5.07187 35.0985 5.59187C35.8585 6.32187 36.1985 6.31187 37.0385 5.67187C38.9785 4.21187 40.9885 2.88187 43.1685 1.76187C44.1885 1.24187 45.2185 0.831869 46.2685 0.441869C46.7485 0.261869 47.2385 0.101869 47.7385 0.0218688C48.0185 -0.0281312 48.4285 0.00186878 48.5985 0.171869C49.3585 0.951869 50.0885 1.77187 50.7385 2.64187C51.0885 3.10187 51.0485 3.70187 50.8585 4.28187C50.5185 5.32187 50.0385 6.25187 49.2385 7.04187C48.2885 7.98187 47.4785 9.08187 46.4985 9.99187C44.8885 11.4919 43.1885 12.8919 41.5185 14.3319C40.6285 15.1019 39.7485 15.8819 38.8385 16.6219C38.0085 17.3019 37.1285 17.9219 36.2885 18.5919C36.0385 18.7919 35.8285 19.0419 35.6185 19.2819C35.5385 19.3719 35.5085 19.5019 35.4585 19.6119C35.5885 19.6419 35.7385 19.7119 35.8585 19.6819C36.6585 19.4619 37.4485 19.1819 38.2585 18.9819C40.2085 18.4919 42.1585 17.9819 44.1285 17.5719C44.9185 17.4019 45.7585 17.4419 46.5685 17.4119C47.0985 17.3919 47.3485 17.1919 47.2585 16.6319C47.1985 16.2319 47.3885 16.0419 47.7485 15.8519C48.5985 15.4019 49.3985 14.8619 50.2185 14.3719C50.4485 14.2319 50.6785 14.0619 50.9285 14.0119C51.9885 13.7919 52.5485 12.9519 53.1985 12.2219C53.6285 11.7419 54.0585 11.2719 54.4885 10.7919C54.7685 10.4819 54.7485 10.2419 54.4885 9.85187C54.0985 9.28187 53.7685 8.62187 53.6085 7.96187C53.3785 7.04187 53.9485 6.40187 54.6985 5.96187C55.7085 5.37187 56.7285 4.79187 57.7785 4.28187C58.6785 3.84187 59.6385 3.52187 60.5685 3.13187C61.4685 2.75187 62.3585 2.33187 63.2785 1.99187C63.8785 1.77187 64.5185 1.67187 65.1585 1.55187C65.8485 1.43187 66.5485 1.33187 67.2385 1.27187C67.6485 1.23187 68.0685 1.27187 68.4785 1.27187C69.3985 1.29187 70.3285 1.27187 71.2485 1.33187C71.9385 1.37187 72.6785 1.40187 73.2985 1.65187C73.6685 1.80187 73.9085 2.37187 74.0985 2.80187C74.1385 2.88187 73.7185 3.27187 73.4685 3.36187C72.9185 3.54187 72.3285 3.62187 71.7485 3.74187C71.1585 3.86187 70.5685 3.98187 69.9785 4.10187C69.9085 4.11187 69.7985 4.16187 69.7985 4.21187C69.6885 4.94187 69.0385 4.71187 68.6185 4.83187C67.5885 5.13187 66.5185 5.32187 65.4785 5.59187C64.6185 5.82187 63.7785 6.11187 62.9285 6.36187C62.0585 6.62187 62.0785 6.68187 62.0585 7.59187C62.0585 8.03187 61.8585 8.53187 61.5885 8.89187C61.1985 9.43187 60.6585 9.87187 60.1985 10.3719C60.0885 10.4919 60.0785 10.6919 60.0185 10.8619C60.1785 10.8919 60.3485 10.9819 60.4885 10.9519C61.5685 10.7119 62.6285 10.4419 63.7085 10.2119C64.8985 9.95187 66.0885 9.69187 67.2785 9.49187C67.6985 9.42187 68.1485 9.52187 68.5785 9.59187C68.9485 9.65187 69.1585 9.56187 69.3585 9.22187C70.0085 8.11187 70.8485 7.13187 71.9985 6.54187C73.2185 5.91187 74.5185 5.42187 75.7685 4.83187C76.3385 4.56187 76.8585 4.17187 77.4085 3.85187C77.7785 3.64187 78.1485 3.43187 78.5285 3.25187C79.2985 2.89187 80.0885 2.56187 80.8585 2.20187C81.3685 1.96187 81.8585 1.67187 82.3885 1.46187C83.3385 1.07187 84.1185 1.40187 84.7085 2.41187C85.0485 3.00187 85.4185 3.58187 85.6485 4.21187C85.7785 4.57187 85.7785 5.07187 85.6285 5.43187C85.4985 5.76187 84.7285 5.69187 84.3085 5.39187C83.8985 5.10187 83.5185 5.06187 83.0485 5.32187C82.4085 5.67187 81.6985 5.92187 81.0285 6.22187C80.6985 6.37187 80.3985 6.56187 80.0785 6.73187C78.7585 7.43187 77.4485 8.14187 76.1285 8.84187C75.5085 9.16187 74.8285 9.39187 74.2785 9.80187C73.7085 10.2319 73.2485 10.8119 72.7785 11.3519C72.7085 11.4319 72.7585 11.7319 72.8485 11.8219C72.9885 11.9619 73.2085 12.0219 73.4085 12.0919C75.5385 12.7819 77.6785 13.4319 79.7885 14.1519C81.1585 14.6219 82.3985 15.3319 83.3285 16.5019C83.4085 16.6019 83.4985 16.7119 83.5785 16.8119C84.1385 17.4719 84.1985 17.4319 84.5885 16.6919C85.1285 15.6719 85.7385 14.6919 86.3385 13.7119C87.4485 11.8819 88.5685 10.0619 89.6985 8.24187C90.5785 6.83187 91.4785 5.43187 92.3585 4.03187C92.4285 3.92187 92.4685 3.79187 92.5385 3.68187C92.6885 3.45187 92.9285 3.01187 92.9985 3.04187C93.3185 3.15187 93.6485 3.34187 93.8685 3.60187C94.1785 3.97187 94.4985 4.38187 94.6285 4.83187C94.8085 5.43187 94.8685 6.07187 94.8785 6.70187C94.8785 7.01187 94.6785 7.34187 94.5085 7.64187C94.1585 8.28187 93.7685 8.91187 93.3985 9.54187C92.4485 11.1519 91.5185 12.7619 90.5485 14.3519C90.1585 14.9919 89.6785 15.5919 89.2385 16.2119C89.1585 16.3219 89.1185 16.4619 89.0085 16.7019L89.0485 16.6819ZM63.2885 23.7119C63.3285 23.7819 63.3685 23.8519 63.4085 23.9219C64.5085 23.8419 65.6285 23.8419 66.7085 23.6519C68.7985 23.2819 70.8785 22.8619 72.9385 22.3519C74.3885 21.9919 75.8285 21.5419 77.2085 20.9819C78.5685 20.4219 79.8585 19.6819 81.1585 18.9919C81.3485 18.8919 81.5785 18.5819 81.5385 18.4319C81.4985 18.2319 81.2285 18.0119 81.0085 17.9319C78.9185 17.2319 76.8185 16.5419 74.6985 15.8919C74.2585 15.7619 73.7185 15.9219 73.3185 15.7419C71.8185 15.0919 70.4685 14.2319 69.9085 12.5519C69.8085 12.2519 69.6585 12.0519 69.2885 12.1419C67.9885 12.4719 66.6285 12.6619 65.3885 13.1419C64.3385 13.5419 63.1285 13.6219 62.2585 14.4719C62.1685 14.5519 62.0085 14.5619 61.8885 14.6019C59.8685 15.2719 57.8485 15.9319 55.8285 16.6019C55.1585 16.8219 54.6185 17.2219 54.1885 17.7819C53.5685 18.5719 52.8985 19.3319 52.3485 20.1719C51.7785 21.0319 51.2985 21.9619 50.8085 22.8919C50.5785 23.3319 50.7285 23.5319 51.2185 23.5419C51.3685 23.5419 51.5285 23.5519 51.6685 23.5119C53.2185 23.0719 54.8185 22.7619 56.2885 22.1319C58.7985 21.0619 61.2285 19.8119 63.6885 18.6219C64.1885 18.3819 64.6985 18.3319 65.1685 18.5819C65.4885 18.7519 65.7885 19.0519 65.9685 19.3719C66.2585 19.8819 66.4985 20.4419 66.6385 21.0119C66.6885 21.2119 66.4585 21.5719 66.2585 21.7219C65.6685 22.1519 65.0185 22.5119 64.4085 22.9119C64.0285 23.1619 63.6585 23.4319 63.2885 23.7019V23.7119ZM21.7285 16.1019C21.7285 16.1019 21.7285 16.1019 21.7285 16.0919C21.4485 16.1119 21.1485 16.0819 20.8785 16.1419C18.8885 16.6219 16.9085 17.1019 14.9285 17.6319C14.1285 17.8519 13.3285 18.1319 12.5785 18.4819C11.6385 18.9219 10.7285 19.4419 9.82849 19.9619C9.34849 20.2419 8.79849 20.5219 8.47849 20.9419C7.88849 21.7219 7.44849 22.6119 6.93849 23.4519C6.68849 23.8519 6.38849 24.2219 6.16849 24.6319C6.06849 24.8119 6.09849 25.0619 6.06849 25.2719C6.27849 25.2519 6.50849 25.2819 6.68849 25.2019C7.48849 24.8319 8.26849 24.4119 9.06849 24.0519C10.1885 23.5519 11.3285 23.0919 12.4685 22.6219C12.8385 22.4719 13.2185 22.2419 13.5885 22.2419C14.3785 22.2619 14.8585 21.8119 15.4285 21.3819C15.9585 20.9719 16.5685 20.5619 17.2085 20.4119C19.2885 19.9319 20.7985 18.5919 22.3085 17.2419C22.5585 17.0119 22.6385 16.6019 22.7985 16.2719C22.4585 16.2119 22.1185 16.1419 21.7885 16.0819C21.7685 16.0819 21.7485 16.0819 21.7285 16.0819V16.1019ZM31.2985 16.8019C31.3485 16.8619 31.3985 16.9219 31.4585 16.9919C31.6385 16.8919 31.8385 16.8119 31.9885 16.6819C33.1085 15.7119 34.2085 14.7319 35.3185 13.7619C35.4285 13.6619 35.5485 13.5619 35.6685 13.4719C36.6485 12.6919 37.6385 11.9219 38.5985 11.1219C40.0085 9.95187 41.4085 8.76187 42.8185 7.57187C43.4985 6.99187 44.2085 6.43187 44.8485 5.81187C45.2085 5.46187 45.4485 4.99187 45.8385 4.44187C45.5085 4.49187 45.2585 4.44187 45.1385 4.55187C44.4385 5.16187 43.5285 5.30187 42.7185 5.64187C42.0085 5.94187 41.3885 6.34187 41.1085 7.14187C41.0585 7.27187 40.7585 7.40187 40.5785 7.39187C40.1285 7.39187 39.7585 7.48187 39.4885 7.87187C39.4085 7.99187 39.2585 8.05187 39.1385 8.15187C38.5185 8.69187 37.8785 9.22187 37.2685 9.78187C36.9685 10.0619 36.7085 10.3919 36.4385 10.7019C35.9385 11.2619 35.4585 11.8519 34.9385 12.3919C34.1885 13.1819 33.3585 13.9019 32.6585 14.7319C32.1285 15.3619 31.7485 16.1119 31.3085 16.8119L31.2985 16.8019ZM24.1885 5.08187C24.1585 5.03187 24.1185 4.98187 24.0885 4.93187C23.9185 4.96187 23.7185 4.96187 23.5685 5.04187C21.9685 5.89187 20.3385 6.69187 18.8085 7.65187C17.6585 8.37187 16.5685 9.22187 15.5885 10.1619C14.8285 10.9019 14.2685 11.8519 13.6485 12.7319C13.5885 12.8219 13.6085 13.0619 13.6885 13.1419C13.7585 13.2219 13.9585 13.2119 14.0985 13.2019C14.2085 13.1919 14.3085 13.1119 14.3985 13.0519C15.3385 12.4219 16.2985 11.8019 17.2185 11.1419C17.9085 10.6519 18.5685 10.1219 19.2485 9.61187C19.6585 9.30187 20.0985 9.04187 20.4785 8.70187C21.5185 7.76187 22.5285 6.79187 23.5385 5.82187C23.7685 5.60187 23.9685 5.33187 24.1885 5.09187V5.08187Z" fill="#E50083"></path><path d="M30.7185 39.3019C30.5485 39.3619 30.3585 39.3819 30.2085 39.4819C29.6085 39.8819 29.0285 40.3019 28.4385 40.7019C27.8085 41.1219 27.1685 41.5219 26.5385 41.9519C25.6485 42.5619 24.7785 43.2019 23.8685 43.7919C22.4285 44.7219 21.1185 45.8619 19.4485 46.4219C18.0985 46.8719 17.3385 46.8119 16.6085 45.7819C15.4485 44.1419 14.8385 42.3819 15.9385 40.4319C16.0085 40.3119 16.0585 40.1919 16.1085 40.0719C16.1285 40.0219 16.1385 39.9619 16.1985 39.7419C15.8885 39.8019 15.6085 39.7819 15.4085 39.9019C14.8185 40.2419 14.2585 40.6319 13.6885 41.0219C12.5885 41.7619 11.4985 42.5119 10.4085 43.2719C9.97848 43.5719 9.57848 43.9319 9.14848 44.2319C8.88848 44.4119 8.57848 44.5019 8.31848 44.6719C8.03848 44.8519 7.76848 45.0519 7.51848 45.2819C7.14848 45.6219 6.83848 46.0219 6.45848 46.3419C5.83848 46.8619 5.22848 47.4419 4.51848 47.8019C4.02848 48.0519 3.36848 48.0819 2.80848 48.0219C2.52848 47.9919 2.26848 47.5519 2.03848 47.2619C1.82848 47.0019 1.67848 46.6919 1.48848 46.4019C1.11848 45.8219 1.28848 45.3319 1.96848 44.8519C2.67848 44.3519 3.34848 43.8119 4.03848 43.2919C4.14848 43.2119 4.25848 43.1419 4.35848 43.0619C5.16848 42.4819 5.99848 41.9219 6.79848 41.3219C8.23848 40.2619 9.70848 39.2319 11.0885 38.0919C12.3585 37.0319 13.8185 36.3219 15.2785 35.6119C16.8085 34.8719 18.3685 34.2019 19.9285 33.5319C20.1385 33.4419 20.4685 33.3719 20.6385 33.4719C21.6785 34.1119 22.8485 34.6619 23.3385 35.8919C23.6085 36.5719 23.7585 37.3119 23.1985 37.9919C22.9985 38.2319 22.8885 38.5319 22.7385 38.8119L22.8585 38.9419C23.2885 38.7019 23.7385 38.4919 24.1485 38.2219C24.9885 37.6719 25.7885 37.0619 26.6385 36.5219C27.0185 36.2819 27.4985 36.2219 27.8785 35.9919C28.8685 35.4119 29.8185 34.7419 30.8285 34.2119C31.5985 33.8019 32.4385 33.5319 33.2485 33.2119C34.0385 32.8919 34.6485 33.2619 35.2285 33.7319C35.4085 33.8719 35.5385 34.0819 35.7285 34.1919C37.5785 35.2919 37.4285 37.2919 36.5285 38.7119C36.3185 39.0419 36.1385 39.3919 35.9485 39.7219C35.9885 39.7719 36.0185 39.8119 36.0585 39.8619C36.2185 39.8119 36.3985 39.8019 36.5285 39.7119C38.0985 38.7819 39.6785 37.8819 41.2085 36.9019C43.5285 35.4019 45.9685 34.1519 48.5085 33.0919C49.2685 32.7719 50.0885 32.5619 50.8885 32.3519C51.1485 32.2819 51.5485 32.2519 51.7085 32.3919C52.4685 33.0719 53.4585 33.5419 53.8285 34.6219C54.1885 35.6819 53.7785 36.5719 53.2985 37.4319C52.9085 38.1219 52.3585 38.7119 51.8985 39.3619C51.7985 39.5019 51.7485 39.6819 51.6085 40.0019C51.9085 39.9019 52.0385 39.8719 52.1585 39.8119C54.2285 38.6619 56.2985 37.5019 58.3585 36.3419C59.9585 35.4419 61.5585 34.5219 63.1785 33.6519C64.1985 33.1119 65.2485 32.6219 66.4185 32.4419C67.5385 32.2719 68.2085 32.9419 68.9185 33.6319C69.6985 34.4019 70.0185 35.3119 69.7985 36.3619C69.6785 36.9419 69.4085 37.5119 69.1585 38.0619C68.9285 38.5619 68.6285 39.0219 68.3785 39.5119C68.3285 39.6019 68.3185 39.7119 68.2385 39.9819C68.5685 39.8519 68.7985 39.7919 68.9785 39.6719C70.4585 38.7419 71.8985 37.7619 73.4085 36.8919C75.5385 35.6619 77.5585 34.2019 79.9685 33.5219C80.6085 33.3419 81.2685 33.1819 81.9285 33.1419C82.2285 33.1219 82.6085 33.3619 82.8385 33.5919C83.2685 34.0119 83.6685 34.4819 83.9785 34.9919C84.3085 35.5219 84.3385 36.1019 83.9185 36.6419C83.0385 37.7719 82.1585 38.9119 81.2885 40.0619C81.1885 40.1919 81.1585 40.3819 81.0985 40.5519C81.2785 40.5419 81.4785 40.5819 81.6185 40.5119C82.5585 40.0319 83.4785 39.5319 84.4085 39.0419C84.9785 38.7419 85.5485 38.4419 86.1185 38.1619C87.6985 37.3719 89.2585 36.5619 90.8585 35.8319C91.7085 35.4419 92.6185 35.1619 93.5185 34.8519C94.6585 34.4619 95.7985 34.0519 96.9585 33.7219C97.4985 33.5719 98.0785 33.5319 98.6485 33.5219C98.8685 33.5219 99.1385 33.7119 99.2985 33.8919C99.4885 34.0919 99.5985 34.3719 99.7285 34.6219C100.288 35.7619 100.218 35.9419 99.0385 36.4919C98.7285 36.6319 98.3985 36.7219 98.0785 36.8519C97.4485 37.1119 96.8385 37.3819 96.2085 37.6419C95.7385 37.8319 95.2685 38.0319 94.7785 38.1619C93.1685 38.6019 91.7985 39.5419 90.3385 40.2819C89.0385 40.9419 87.7285 41.5619 86.4485 42.2519C85.5885 42.7119 84.7685 43.2319 83.9285 43.7219C82.7985 44.3819 81.6785 45.0519 80.5285 45.6819C79.4585 46.2619 78.2885 45.8219 77.5385 44.8219C76.7385 43.7419 76.6485 42.5319 76.6985 41.3219C76.7185 40.6919 77.1185 40.0819 77.3485 39.4619C77.3885 39.3419 77.4585 39.2319 77.5785 38.9919C77.3285 39.0619 77.1885 39.0819 77.0785 39.1319C76.2885 39.5419 75.4985 39.9419 74.7285 40.3819C74.3585 40.5919 74.0385 40.9019 73.6685 41.1319C72.9985 41.5519 72.2985 41.9319 71.6385 42.3619C70.7385 42.9519 69.8785 43.6119 68.9685 44.1819C68.0685 44.7419 67.1485 45.2619 66.2085 45.7319C65.9585 45.8519 65.5285 45.8319 65.2885 45.6919C64.7785 45.3819 64.1985 45.1319 64.0185 44.4019C63.8985 43.9219 63.5485 43.5119 63.4185 42.9719C63.0285 41.2419 63.6585 39.8019 64.4385 38.3619C64.6485 37.9719 64.8285 37.5719 65.0285 37.1719C64.9885 37.1319 64.9485 37.0919 64.8985 37.0519C64.2485 37.4219 63.5985 37.8019 62.9485 38.1719C62.3685 38.5019 61.8085 38.8719 61.2085 39.1319C59.5985 39.8519 58.0485 40.6619 56.6085 41.6919C55.7785 42.2819 54.8885 42.8019 54.0185 43.3519C53.2085 43.8619 52.3985 44.3919 51.5685 44.8619C51.0085 45.1819 50.4285 45.5519 49.8185 45.6519C49.3085 45.7419 48.5885 45.6419 48.2185 45.3319C46.8185 44.1719 46.2485 42.5819 46.4685 40.7819C46.5385 40.1819 46.8885 39.6119 47.1085 39.0319C47.1785 38.8519 47.2085 38.6519 47.2785 38.3819C46.5785 38.7219 45.9485 38.9519 45.3785 39.3019C43.9785 40.1619 42.6185 41.0919 41.2285 41.9719C40.4885 42.4319 39.7085 42.8219 38.9785 43.2919C38.2585 43.7419 37.5985 44.2819 36.8785 44.7319C35.7085 45.4619 34.5285 46.2019 33.3185 46.8519C32.4885 47.3019 31.2885 46.9419 30.7585 46.2419C28.7085 43.5419 29.3785 41.8719 30.5585 39.9319C30.6485 39.7919 30.7185 39.6519 30.7985 39.5019C30.7585 39.4519 30.7285 39.4119 30.6885 39.3619L30.7185 39.3019Z" fill="#E50083"></path></svg>